<?xml version="1.0" encoding="UTF-8" standalone="no"?>
<!-- Created with Inkscape (http://www.inkscape.org/) -->

<svg
   version="1.1"
   id="svg1"
   width="1024"
   height="1024"
   viewBox="0 0 1024 1024"
   sodipodi:docname="134ec95a-9154-4c72-89fd-3b7acef15da7.svg"
   inkscape:version="1.4.2 (f4327f4, 2025-05-13)"
   xmlns:inkscape="http://www.inkscape.org/namespaces/inkscape"
   xmlns:sodipodi="http://sodipodi.sourceforge.net/DTD/sodipodi-0.dtd"
   xmlns="http://www.w3.org/2000/svg"
   xmlns:svg="http://www.w3.org/2000/svg">
  <defs
     id="defs1" />
  <sodipodi:namedview
     id="namedview1"
     pagecolor="#ffffff"
     bordercolor="#000000"
     borderopacity="0.25"
     inkscape:showpageshadow="2"
     inkscape:pageopacity="0.0"
     inkscape:pagecheckerboard="0"
     inkscape:deskcolor="#d1d1d1"
     inkscape:zoom="0.78808594"
     inkscape:cx="643.33085"
     inkscape:cy="576.71375"
     inkscape:window-width="1920"
     inkscape:window-height="1009"
     inkscape:window-x="-8"
     inkscape:window-y="-8"
     inkscape:window-maximized="1"
     inkscape:current-layer="g1" />
  <g
     inkscape:groupmode="layer"
     inkscape:label="Image"
     id="g1">
    <path
       d="m 234.98163,287.31103 c -12.37447,1.79778 -5.23638,19.10695 -7.42817,27.65546 -0.35689,27.59435 0.0542,55.21885 -1.0855,82.79181 -15.54681,-12.51414 -27.5542,-29.09687 -43.66487,-40.88439 -9.89284,-1.98459 -20.00201,15.16274 -9.08313,21.64934 17.48924,19.08914 35.63026,37.57573 53.66011,56.15497 -19.05844,19.81106 -38.91701,38.91 -56.99219,59.62304 -1.18201,11.15076 15.07775,22.4112 21.78655,9.42312 11.20333,-11.28577 21.33811,-23.75222 33.50335,-34.00764 2.37339,9.90666 1.00873,22.50384 1.42365,33.5455 0.30936,22.50042 -0.60068,45.07531 1.20116,67.51982 4.49245,14.89427 18.3429,-0.80422 24.03959,-6.76663 20.73694,-21.16979 43.51888,-40.45059 62.40273,-63.36054 7.92812,-9.56541 -6.13261,-17.46849 -11.29341,-24.3967 -14.53195,-15.18293 -29.47711,-29.96224 -44.23745,-44.92177 19.36971,-19.806 39.34806,-39.06785 58.19924,-59.33935 2.57547,-11.40102 -13.29346,-17.02061 -19.18846,-25.43381 -19.70996,-18.7093 -38.31566,-38.5861 -58.50183,-56.78275 -1.41207,-0.98194 -2.87607,-2.44427 -4.74137,-2.46948 z m 17.23438,47 c 12.18685,11.45354 23.83055,23.53127 36.22656,34.79492 -11.45098,12.13759 -23.51486,23.68988 -36.19922,34.53516 -0.93104,-23.05581 -0.97226,-46.27813 -0.0273,-69.33008 z m 0,128 c 12.18685,11.45354 23.83055,23.53127 36.22656,34.79492 -11.45098,12.13759 -23.51486,23.68988 -36.19922,34.53516 -0.93104,-23.05581 -0.97226,-46.27813 -0.0273,-69.33008 z"
       id="path12"
       style="stroke-width:3;stroke-dasharray:none;stroke:#000000;stroke-opacity:1;fill:#fafafa;fill-opacity:1" />
    <path
       d="m 583.73047,447.12305 c -0.4104,0.007 -0.85763,0.0387 -1.36914,0.0762 -3.94326,0.28923 -4.40705,0.7078 -11.86719,10.72851 -4.26976,5.73527 -7.76081,10.91027 -7.75781,11.5 0.0174,3.34695 2.37838,8.70894 4.28906,9.74219 1.21344,0.65619 6.48008,1.47976 11.70508,1.83008 15.99058,1.0721 22.86095,-0.20345 24.87109,-4.61523 2.40751,-5.28391 1.47559,-7.45629 -8.01172,-18.68555 -7.96273,-9.42476 -8.98656,-10.62444 -11.85937,-10.57617 z"
       id="path11"
       style="display:inline" />
    <path
       d="m 588.33398,244.13413 c -5.30561,-0.15395 -10.70394,-0.067 -16.20507,0.25782 -20.93092,1.23607 -40.41273,6.40179 -58.89844,15.61718 -9.47813,4.72498 -30.65792,18.92257 -37.90039,25.40625 -13.84521,12.39466 -27.60142,30.67766 -36.64844,48.70899 -18.11611,36.10668 -20.63307,80.22146 -6.86914,120.40625 10.07397,29.41165 28.11668,53.00143 58.59961,76.61719 7.10507,5.50445 8.26566,6.84076 8.82812,10.16992 1.05175,6.22524 7.01864,17.49454 11.66797,22.0332 4.85665,4.74103 11.23291,7.8818 20.82227,10.25781 6.6119,1.63828 23.2435,4.35282 30.5,4.97852 8.88366,0.766 38.60217,0.57147 47.6875,-0.3125 14.41013,-1.40205 29.50858,-4.7601 36.58984,-8.13867 9.40893,-4.48913 17.8065,-15.80401 20.83399,-28.07227 1.39349,-5.6468 2.03877,-6.73499 4.77343,-8.03906 11.68762,-5.57344 31.99285,-25.24904 43.4961,-42.14844 13.66172,-20.0704 21.41951,-39.78899 25.2207,-64.10742 1.6073,-10.28315 1.62439,-37.54247 0.0312,-48.5 -5.763,-39.63754 -22.88108,-70.84317 -52.5,-95.70313 -30.36453,-25.48575 -62.89001,-38.35393 -100.0293,-39.43164 z m -4.73828,24.61133 c 3.26636,0.0253 6.51269,0.18556 9.72461,0.48242 34.24814,3.1654 59.21886,14.83447 83.48242,39.01172 12.87157,12.82578 20.76886,23.872 26.48829,37.05078 10.26686,23.65705 12.92818,37.14654 12.19726,61.81836 -0.5776,19.4966 -2.24062,27.94142 -7.91406,40.16016 -8.86729,19.09728 -18.88956,31.07618 -30.54883,36.51562 -3.18661,1.48666 -7.28301,3.39229 -9.10156,4.23438 -8.09636,3.74906 -12.03309,13.93432 -12.85547,33.25 -0.66165,15.54039 -2.13005,20.2149 -7.67383,24.44336 -4.28613,3.26919 -10.04825,5.11759 -18.9082,6.06641 -8.15273,0.87308 -8.50992,0.39046 -9.40821,-12.70704 -0.93947,-13.69783 -1.00412,-13.80273 -8.69921,-13.80273 -4.54765,0 -6.77289,0.44605 -7.68164,1.54102 -0.77938,0.9391 -1.54882,6.22067 -1.96875,13.51367 -0.37913,6.58425 -1.01983,12.30357 -1.42383,12.70898 -0.93388,0.93716 -20.31568,1.19395 -27.57422,0.36524 l -5.5,-0.62891 -0.5,-13.16992 c -0.275,-7.24396 -0.8535,-13.52376 -1.28711,-13.95508 -0.43362,-0.43131 -3.60355,-0.96459 -7.04297,-1.18359 -4.53349,-0.28868 -6.5729,-0.012 -7.41602,1.0039 -0.63964,0.77074 -1.70631,6.55497 -2.37109,12.85352 -0.66477,6.29855 -1.69737,11.96685 -2.29492,12.59765 -2.63396,2.78057 -22.69276,-2.33972 -28.58399,-7.29687 -3.86099,-3.2488 -4.67861,-6.86274 -5.49023,-24.2793 -1.00631,-21.59454 -2.1128,-23.31489 -22.89062,-35.56836 -15.18422,-8.95471 -20.89111,-14.92751 -27.56446,-28.84961 -9.00996,-18.7968 -11.58841,-33.0238 -10.78711,-59.51562 0.61375,-20.29139 2.00855,-26.95922 8.92969,-42.65625 13.30939,-30.18544 30.72662,-50.10934 57.55859,-65.83985 20.36563,-11.93954 44.24097,-18.34128 67.10547,-18.16406 z"
       id="path10"
       style="display:inline;stroke:#ffffff;stroke-width:1.7;stroke-dasharray:none;stroke-opacity:1;fill:#000000" />
    <path
       d="m 643.35937,368.51562 c -28.70564,-1.90539 -49.56072,32.81099 -37.34329,58.04198 8.49085,21.31637 36.32735,31.30616 56.27294,19.7395 20.39731,-10.54326 26.5181,-38.55552 14.75367,-57.67702 -6.62574,-11.97725 -19.59717,-21.09433 -33.68332,-20.10446 z"
       id="path9" />
    <path
       d="m 583.73047,447.12305 c 2.87281,-0.0483 3.89664,1.15141 11.85937,10.57617 9.48731,11.22926 10.41923,13.40164 8.01172,18.68555 -2.01014,4.41178 -8.88051,5.68733 -24.87109,4.61523 -5.225,-0.35032 -10.49164,-1.17389 -11.70508,-1.83008 -1.91068,-1.03325 -4.27165,-6.39524 -4.28906,-9.74219 -0.003,-0.58973 3.48805,-5.76473 7.75781,-11.5 7.46014,-10.02071 7.92393,-10.43928 11.86719,-10.72851 0.51151,-0.0375 0.95874,-0.0693 1.36914,-0.0762 z"
       id="path8"
       style="display:inline" />
    <path
       d="m 524.125,368.6875 c -77.05708,-4.90065 -16.34112,135.82715 29.17428,66.38956 15.93076,-23.47707 6.60533,-71.77764 -29.17428,-66.38956 z"
       id="path6" />
    <path
       style="fill:#009dea;fill-opacity:1;stroke-width:1.2689"
       d="m 578.4698,808.91539 c -2.5355,-1.48159 -7.00272,-8.4159 -32.28499,-50.11489 -26.75709,-44.13148 -47.16209,-76.07214 -94.03236,-147.19207 -47.09416,-71.45964 -54.01906,-82.46559 -62.27408,-98.97398 -7.91764,-15.83369 -17.26579,-39.13513 -21.34434,-53.20346 -7.24641,-24.99538 -10.67541,-57.80499 -8.23155,-78.76184 7.81649,-67.02895 43.94503,-126.63018 98.89584,-163.1484 34.98209,-23.24778 72.97631,-35.88969 112.99319,-37.59653 87.22529,-3.7204 166.68757,42.08158 208.48399,120.16996 15.45917,28.88245 25.03016,66.24864 25.02618,97.70508 -0.005,39.14607 -14.50864,87.60508 -38.92728,130.06196 -3.21109,5.58315 -21.93304,34.70434 -41.60433,64.71375 -50.77291,77.45628 -78.2948,120.53485 -102.14426,159.88104 -25.50709,42.08094 -31.27579,51.22468 -34.6231,54.87981 -2.74574,2.99822 -6.48697,3.59317 -9.93291,1.57957 z M 630.858,574.4027 c 20.88306,-4.9538 30.55889,-13.21556 36.54515,-31.20431 2.47382,-7.43382 3.22464,-8.35448 11.32934,-13.89218 17.07585,-11.6674 38.43394,-36.80413 48.66648,-57.27647 10.38722,-20.78179 14.90586,-42.10158 14.90586,-70.32861 0,-28.85991 -4.39881,-49.2669 -15.58662,-72.30962 -17.01402,-35.04255 -53.90935,-66.26596 -93.68775,-79.28513 -17.35125,-5.67893 -29.81991,-7.52391 -50.60667,-7.4882 -20.07621,0.0345 -35.53001,2.4642 -51.50919,8.09851 -14.93218,5.26514 -21.25103,8.53404 -38.04983,19.68417 -34.5321,22.92052 -58.43835,57.9008 -67.26213,98.4198 -3.12617,14.35542 -3.71784,41.08034 -1.24557,56.25989 6.84911,42.05282 25.50374,73.0128 61.54982,102.15051 9.95279,8.04529 11.54113,9.90034 13.41175,15.66375 6.16593,18.99732 15.47118,26.57952 38.22666,31.14825 18.76554,3.76764 17.8779,3.70999 51.22298,3.32674 26.10237,-0.30001 32.85234,-0.77585 42.08972,-2.9671 z"
       id="path5"
       sodipodi:nodetypes="ssssssssssssssssssssssssssssssss" />
    <path
       style="fill:#ffffff;fill-opacity:0;stroke-width:1.2689;paint-order:markers fill stroke"
       d="m 240.9286,587.30737 c -1.37088,-1.64944 -1.97375,-13.05836 -2.83292,-53.61091 -0.60028,-28.33354 -1.35142,-51.79084 -1.66919,-52.12732 -0.31777,-0.33647 -9.73513,8.65684 -20.92747,19.98513 -11.19234,11.3283 -21.36659,20.59691 -22.60943,20.59691 -3.00848,0 -11.4373,-9.45362 -11.4373,-12.82787 0,-2.88404 6.58711,-10.17413 37.903,-41.94808 l 19.59466,-19.88127 -26.14128,-27.06792 c -25.2105,-26.10415 -33.89417,-35.82164 -33.89417,-37.92939 0,-2.44503 8.63974,-12.01903 11.17786,-12.38657 2.17645,-0.31516 7.57295,4.22767 23.74065,19.98513 11.50815,11.21616 21.40218,20.39302 21.98671,20.39302 1.34146,0 2.72468,-38.74486 2.72936,-76.45106 0.003,-27.28199 0.14456,-29.00838 2.57046,-31.43428 4.2524,-4.2524 3.47211,-4.90592 58.02296,48.59586 19.47981,19.10519 28.23296,28.53691 28.23296,30.42165 0,1.86833 -9.22347,11.98568 -29.18463,32.01303 -16.05155,16.10477 -29.18464,29.79013 -29.18464,30.41192 0,0.62179 12.55717,13.83185 27.90483,29.35569 15.34765,15.52382 28.48505,29.75128 29.19423,31.61657 1.78426,4.69294 -0.17151,7.22966 -25.3019,32.81771 -29.17187,29.70313 -52.78587,51.5674 -55.69417,51.5674 -1.3415,0 -3.22276,-0.9429 -4.18058,-2.09535 z m 41.04571,-187.92199 17.61257,-17.44734 -17.67989,-17.44733 c -9.72393,-9.59604 -18.3176,-17.44734 -19.09703,-17.44734 -1.00924,0 -1.41715,10.04386 -1.41715,34.89467 0,25.79533 0.3871,34.89467 1.48446,34.89467 0.81646,0 9.41012,-7.8513 19.09704,-17.44733 z"
       id="path16" />
    <path
       style="display:inline;fill:#ffffff;stroke:#ffffff;stroke-width:2.15713;stroke-linecap:round;stroke-linejoin:round;stroke-dasharray:none;stroke-opacity:1"
       d="m 567.76924,552.06045 c -0.90336,-2.77277 -2.95667,-20.49945 -2.72035,-23.48543 0.26637,-3.36559 -2.59275,-4.79076 -10.08785,-5.02846 -3.89585,-0.12356 -5.29071,1.26434 -6.24922,6.218 -0.57222,2.95728 -2.00051,13.03988 -2.24687,15.86121 -0.41713,4.77677 -2.05664,5.89469 -7.62149,5.19682 -5.25017,-0.65842 -10.06131,-1.59948 -10.66502,-2.0861 -0.17448,-0.14064 -0.74548,-0.35101 -1.2689,-0.4675 -5.09369,-1.13362 -13.14428,-7.99751 -13.96161,-11.90359 -0.49289,-2.35556 -1.6329,-16.78616 -1.99168,-25.21144 -0.12383,-2.90796 -0.61406,-5.67604 -1.08939,-6.15132 -0.47534,-0.47528 -0.557,-1.66482 -0.18147,-2.64343 0.37553,-0.9786 0.017,-1.77929 -0.79676,-1.77929 -0.81375,0 -1.18053,-0.48381 -0.81507,-1.07513 0.60725,-0.98257 -8.19709,-9.75705 -9.19531,-9.16412 -0.23803,0.14138 -1.21913,-0.78022 -2.18022,-2.048 -0.96109,-1.26778 -1.76559,-1.88239 -1.78779,-1.36581 -0.0222,0.51659 -1.03961,0.0837 -2.26092,-0.96206 -1.22132,-1.04572 -2.72774,-1.84786 -3.3476,-1.78254 -0.61987,0.0653 -1.47638,-0.36151 -1.90335,-0.94852 -1.09121,-1.50017 -10.29304,-8.28443 -10.29304,-7.58877 0,1.28432 -8.38249,-7.92378 -10.0504,-11.04031 -0.98918,-1.8483 -2.30673,-3.36055 -2.92788,-3.36055 -0.62115,0 -0.77647,-0.571 -0.34514,-1.26889 0.43132,-0.6979 0.14582,-1.2689 -0.63445,-1.2689 -0.78027,0 -1.06577,-0.57101 -0.63445,-1.2689 0.43132,-0.69789 0.14582,-1.2689 -0.63445,-1.2689 -0.78027,0 -1.06577,-0.571 -0.63445,-1.26889 0.43132,-0.6979 0.14582,-1.2689 -0.63445,-1.2689 -0.78026,0 -1.06577,-0.571 -0.63444,-1.2689 0.43132,-0.69789 0.0844,-1.26889 -0.77105,-1.26889 -0.8554,0 -1.19469,-0.36059 -0.75398,-0.80129 0.44071,-0.44071 0.12786,-2.01097 -0.69523,-3.48946 -0.82308,-1.47851 -1.58812,-3.11644 -1.70008,-3.63986 -0.11197,-0.52342 -0.34633,-1.23718 -0.5208,-1.58612 -0.17448,-0.34895 -0.45998,-1.20546 -0.63445,-1.90335 -0.17448,-0.69789 -0.45447,-1.69715 -0.62221,-2.22057 -0.16774,-0.52342 -0.43764,-1.52268 -0.59979,-2.22057 -0.16214,-0.69789 -0.45465,-1.5544 -0.65002,-1.90334 -3.42562,-6.11854 -3.9028,-43.98134 -0.75162,-59.63817 1.02082,-5.07201 1.77536,-8.22345 2.05072,-8.56506 0.14063,-0.17447 0.39844,-0.88822 0.57292,-1.58612 0.17447,-0.69789 0.45622,-1.69715 0.6261,-2.22057 0.16988,-0.52342 0.24125,-1.37992 0.15861,-1.90334 -0.0827,-0.52342 0.42074,-0.95168 1.11863,-0.95168 0.6979,0 1.14759,-0.42825 0.99932,-0.95167 -0.14827,-0.52342 0.40264,-2.16135 1.22425,-3.63985 0.82161,-1.4785 1.13326,-3.04876 0.69255,-3.48947 -0.44071,-0.44071 -0.10142,-0.80129 0.75398,-0.80129 0.85539,0 1.20236,-0.571 0.77104,-1.26889 -0.43132,-0.6979 -0.14582,-1.2689 0.63445,-1.2689 0.78027,0 1.06577,-0.571 0.63445,-1.2689 -0.43132,-0.69789 -0.14582,-1.26889 0.63445,-1.26889 0.78027,0 1.06577,-0.57101 0.63445,-1.2689 -0.43133,-0.6979 -0.14582,-1.2689 0.63445,-1.2689 0.78026,0 1.09591,-0.52223 0.70142,-1.16052 -0.39448,-0.63829 -0.28543,-1.35204 0.24234,-1.58612 1.16289,-0.51577 8.21634,-11.21123 7.3936,-11.21123 -0.31951,0 1.0999,-1.84026 3.15424,-4.08948 2.05434,-2.24921 3.73516,-4.43478 3.73516,-4.85681 0,-1.13262 18.03508,-18.96944 19.18028,-18.96944 0.538,0 1.72431,-1.06526 2.63625,-2.36724 0.91194,-1.30197 2.22907,-2.46513 2.92697,-2.58479 0.69789,-0.11965 2.55799,-1.33841 4.13356,-2.70835 1.57557,-1.36994 3.43133,-2.4908 4.12392,-2.4908 0.69258,0 1.25924,-0.57101 1.25924,-1.2689 0,-0.69789 0.42826,-1.15548 0.95168,-1.01687 0.52342,0.13862 4.51714,-1.58094 8.87493,-3.82125 4.35779,-2.2403 8.06932,-3.97023 8.24783,-3.8443 0.17852,0.12594 1.75208,-0.56103 3.49682,-1.5266 1.74473,-0.96557 3.60049,-1.84718 4.12391,-1.95915 0.52342,-0.11197 1.23718,-0.34633 1.58612,-0.5208 0.34895,-0.17447 1.20546,-0.45998 1.90335,-0.63445 0.69789,-0.17447 1.41165,-0.43229 1.58612,-0.57292 0.4147,-0.33427 4.71873,-1.34671 7.93061,-1.86552 1.39578,-0.22545 2.53779,-0.53038 2.53779,-0.6776 0,-0.27244 2.3638,-0.71284 11.42008,-2.1277 10.44311,-1.63153 29.69079,-0.97299 41.8736,1.43266 2.09368,0.41342 4.9487,0.93892 6.34449,1.16776 1.39578,0.22885 2.53779,0.53266 2.53779,0.67512 0,0.23719 1.89077,0.76631 6.02726,1.68666 0.87237,0.1941 2.29988,0.7988 3.17225,1.34378 0.87236,0.54498 1.59486,0.52893 1.60554,-0.0357 0.0107,-0.56461 0.49032,-0.2842 1.06585,0.62313 0.57554,0.90732 2.27979,1.74259 3.78727,1.85615 1.50746,0.11355 2.74084,0.65595 2.74084,1.20533 0,0.54938 0.42825,0.89922 0.95167,0.77743 1.3735,-0.31959 8.39788,3.10984 9.4973,4.63675 0.51274,0.7121 0.94099,0.84423 0.95168,0.29362 0.0107,-0.5506 1.17108,0.0718 2.57864,1.38317 1.40756,1.31135 4.11983,3.18842 6.02726,4.17127 1.90743,0.98286 3.92467,2.5017 4.48277,3.3752 0.5581,0.87351 1.46441,1.58819 2.01403,1.58819 2.28434,0 26.79033,24.06077 26.79033,26.30359 0,0.7486 6.77761,9.72404 8.03176,10.6363 0.58701,0.42697 0.93408,0.99797 0.77128,1.26889 -0.16281,0.27093 1.04586,3.0621 2.68591,6.20262 1.64005,3.14052 2.86649,6.13829 2.72541,6.66171 -0.14107,0.52342 0.40968,0.95168 1.22389,0.95168 0.8142,0 1.1198,0.36058 0.67909,0.80128 -0.44071,0.44071 -0.12785,2.01097 0.69523,3.48947 0.82308,1.4785 1.58813,3.11643 1.70008,3.63985 0.11197,0.52342 0.34633,1.23718 0.52081,1.58613 0.17447,0.34894 0.45997,1.20545 0.63445,1.90334 0.17447,0.69789 0.45997,1.5544 0.63444,1.90335 0.17448,0.34894 0.45998,1.20545 0.63445,1.90334 0.17448,0.6979 0.43229,1.41165 0.57292,1.58612 0.14063,0.17448 0.46414,1.17373 0.71888,2.22057 0.25476,1.04684 0.82557,3.33086 1.26849,5.07559 2.44295,9.62316 2.86068,53.86976 0.55107,58.36927 -0.17911,0.34895 -0.45832,1.20545 -0.62046,1.90335 -0.16215,0.69789 -0.43206,1.69715 -0.5998,2.22057 -0.16773,0.52342 -0.44773,1.52267 -0.6222,2.22057 -0.17447,0.69789 -0.45997,1.5544 -0.63445,1.90334 -0.17447,0.34895 -0.4163,1.0627 -0.5374,1.58612 -1.33041,5.75042 -20.149,35.84635 -22.41423,35.84635 -0.63658,0 -2.16134,0.99925 -3.38836,2.22057 -1.22703,1.22131 -4.7958,3.34682 -7.93061,4.72334 -3.13481,1.37653 -6.11917,3.08954 -6.6319,3.80669 -0.51274,0.71716 -0.94099,0.86251 -0.95168,0.323 -0.0107,-0.53951 -1.47982,-0.024 -3.26477,1.1455 -3.03317,1.98742 -9.20517,11.88994 -7.4107,11.88994 0.44858,0 0.25252,0.71376 -0.4357,1.58613 -0.68821,0.87236 -1.29903,2.44262 -1.35738,3.48946 -0.1396,2.5052 -1.45386,17.04816 -2.12142,23.4746 -0.77897,7.49912 -1.28179,9.38096 -2.95308,11.05225 -0.83041,0.83041 -1.50983,2.14556 -1.50983,2.92256 0,0.77701 -1.99851,2.19689 -4.44114,3.1553 -2.44263,0.95841 -4.44114,2.11183 -4.44114,2.56315 0,0.45132 -0.71376,0.88508 -1.58612,0.96392 -3.46204,0.31284 -8.07345,1.19799 -10.78563,2.07024 -2.98037,0.95851 -7.96976,-0.0393 -7.75457,-1.55072 0.0685,-0.48089 -0.0145,-1.3026 -0.18438,-1.82602 -0.36337,-1.11953 -0.84191,-5.3869 -1.64299,-14.65113 -0.31962,-3.69628 -0.91629,-7.05569 -1.32594,-7.46534 -0.60273,-0.60274 -9.13158,-0.88747 -14.70842,-0.49105 -0.65453,0.0465 -1.21766,1.08385 -1.25142,2.30517 -0.0728,2.63336 -1.10333,14.37976 -1.8017,20.53646 l -0.49435,4.35803 -15.52275,0.17331 c -10.06034,0.11233 -15.67857,-0.30495 -15.96555,-1.18579 z m 34.15133,-73.14387 c 4.97036,-3.90969 4.37551,-8.44095 -2.26182,-17.22952 -14.67986,-19.43774 -18.30227,-19.90839 -30.02745,-3.90135 -7.99622,10.91632 -8.59513,12.90584 -5.61809,18.66278 2.21172,4.277 3.83098,4.64273 21.72892,4.90786 11.23539,0.16643 13.25178,-0.13765 16.17844,-2.43977 z m -65.81153,-26.39671 c 6.7855,-3.10694 16.52229,-13.79029 20.70833,-22.72148 3.07295,-6.55633 3.39989,-8.66209 3.39207,-21.84796 -0.007,-12.63853 -0.41343,-15.49066 -3.03184,-21.30183 -3.81826,-8.47404 -12.16353,-15.97881 -19.94808,-17.93898 -12.3439,-3.10824 -34.16309,0.69955 -41.54145,7.24963 -5.18866,4.60618 -8.40597,14.19762 -8.41917,25.09917 -0.0213,17.6213 6.77906,34.1295 18.45533,44.80095 9.86139,9.01276 20.26632,11.29358 30.38481,6.6605 z m 121.90531,-3.55348 c 8.83682,-3.0051 19.65044,-14.01577 22.84761,-23.26393 3.63608,-10.51774 3.16747,-24.45762 -1.1165,-33.21375 -4.86125,-9.93602 -11.38391,-16.89104 -19.63439,-20.93588 -9.77224,-4.79087 -24.42909,-5.06065 -33.52054,-0.61699 -8.60896,4.20783 -15.91875,11.91715 -20.46785,21.58654 -10.4941,22.30586 0.005,48.22173 22.94907,56.64976 6.69177,2.45803 21.41732,2.35335 28.9426,-0.20575 z"
       id="path1" />
  </g>
</svg>
