<?xml version="1.0" encoding="UTF-8" standalone="no"?>
<!-- Created with Inkscape (http://www.inkscape.org/) -->

<svg
   version="1.1"
   id="svg1"
   width="1024"
   height="1024"
   viewBox="0 0 1024 1024"
   sodipodi:docname="noncolor.svg"
   inkscape:version="1.4.2 (f4327f4, 2025-05-13)"
   xmlns:inkscape="http://www.inkscape.org/namespaces/inkscape"
   xmlns:sodipodi="http://sodipodi.sourceforge.net/DTD/sodipodi-0.dtd"
   xmlns="http://www.w3.org/2000/svg"
   xmlns:svg="http://www.w3.org/2000/svg">
  <defs
     id="defs1">
    <linearGradient
       id="swatch1"
       inkscape:swatch="solid">
      <stop
         style="stop-color:#000000;stop-opacity:1;"
         offset="0"
         id="stop1" />
    </linearGradient>
  </defs>
  <sodipodi:namedview
     id="namedview1"
     pagecolor="#ffffff"
     bordercolor="#000000"
     borderopacity="0.25"
     inkscape:showpageshadow="2"
     inkscape:pageopacity="0.0"
     inkscape:pagecheckerboard="0"
     inkscape:deskcolor="#d1d1d1"
     inkscape:zoom="0.78808594"
     inkscape:cx="643.33085"
     inkscape:cy="576.71375"
     inkscape:window-width="1920"
     inkscape:window-height="1009"
     inkscape:window-x="-8"
     inkscape:window-y="-8"
     inkscape:window-maximized="1"
     inkscape:current-layer="g1" />
  <g
     inkscape:groupmode="layer"
     inkscape:label="Image"
     id="g1">
    <path
       d="m 513.9644,638.47273 c -1.31183,0.0197 -2.7414,0.11265 -4.37645,0.22132 -12.60468,0.84048 -14.0872,2.05678 -37.93361,31.17551 -13.64833,16.66586 -24.80749,31.7037 -24.79791,33.41735 0.0555,9.72575 7.60251,25.30693 13.71002,28.3094 3.87877,1.90683 20.71364,4.3 37.41541,5.31796 51.11404,3.11537 73.07524,-0.59118 79.50068,-13.4112 7.69563,-15.35428 4.71675,-21.66691 -25.60955,-54.29753 -25.45294,-27.38697 -28.72562,-30.87311 -37.90859,-30.73281 z"
       id="path11"
       style="display:inline;stroke-width:3.04772" />
    <path
       d="M 528.67958,48.616081 C 511.72014,48.168705 494.46432,48.421349 476.87991,49.365269 409.97401,52.957108 347.70022,67.967951 288.61045,94.746543 258.31352,108.47665 190.61211,149.73281 167.46149,168.57347 123.20513,204.59056 79.233264,257.71834 50.314392,310.11478 -7.5939348,415.03561 -15.639437,543.22683 28.357117,659.99809 c 32.201543,85.466 89.875233,154.01452 187.314223,222.63853 22.71143,15.99514 26.42125,19.87826 28.21916,29.55232 3.36194,18.08969 22.43518,50.83661 37.2968,64.02531 15.52433,13.77676 35.9061,22.90338 66.55858,29.80775 21.13503,4.7606 74.2981,12.6487 97.49357,14.4669 28.3967,2.2258 123.39221,1.6606 152.43356,-0.9081 46.06212,-4.0742 94.32447,-13.8322 116.95978,-23.64984 30.07574,-13.04475 56.91867,-45.9242 66.59606,-81.57399 4.4543,-16.40879 6.51695,-19.57092 15.25831,-23.36036 37.35958,-16.19561 102.26546,-73.37008 139.03571,-122.47731 43.66983,-58.32169 68.46763,-115.62109 80.61823,-186.28695 5.1378,-29.88135 5.1924,-109.09301 0.1,-140.93404 C 997.81938,326.11731 943.10127,235.43824 848.4241,163.19874 751.36358,89.140834 647.39555,51.747743 528.67945,48.616081 Z m -15.14596,71.516979 c 10.44095,0.0735 20.81785,0.53922 31.08481,1.40185 109.47451,9.19819 189.29366,43.10683 266.85236,113.36245 41.14412,37.26988 66.38788,69.36861 84.67008,107.66426 32.81813,68.74398 41.32509,107.94252 38.98868,179.63528 -1.8463,56.65431 -7.16216,81.19376 -25.29738,116.69966 -28.34437,55.49393 -60.38066,90.30291 -97.64963,106.10913 -10.18605,4.32003 -23.28021,9.85751 -29.09324,12.3045 -25.88009,10.89426 -38.46388,40.49115 -41.09261,96.61971 -2.11499,45.15818 -6.80875,58.74162 -24.52949,71.02892 -13.70065,9.49979 -32.11933,14.87098 -60.44023,17.62811 -26.06031,2.53705 -27.20206,1.13462 -30.07346,-36.92484 -3.00302,-39.80392 -3.20966,-40.10874 -27.80711,-40.10874 -14.53662,0 -21.64961,1.29617 -24.55442,4.47798 -2.49131,2.72888 -4.95081,18.07637 -6.29313,39.26879 -1.21191,19.13289 -3.25991,35.7524 -4.55131,36.93047 -2.98513,2.72324 -64.93927,3.46945 -88.14126,1.06132 l -17.58079,-1.82753 -1.59827,-38.26987 c -0.87903,-21.04993 -2.72821,-39.29809 -4.11425,-40.55145 -1.38608,-1.25335 -11.51878,-2.80298 -22.51294,-3.43936 -14.49133,-0.83884 -21.01034,-0.035 -23.70537,2.91719 -2.04462,2.23964 -5.45424,19.04779 -7.57921,37.35048 -2.12494,18.30268 -5.42566,34.77396 -7.33572,36.60696 -8.41949,8.07995 -72.53763,-6.79888 -91.36901,-21.20366 C 287.46901,909.43415 284.8555,898.93254 282.26113,848.32252 279.04445,785.57189 275.50754,780.5728 209.09104,744.96598 160.55452,718.94487 142.31239,701.58877 120.98097,661.13317 92.180547,606.51235 83.938507,565.17075 86.499861,488.18933 88.461719,429.22544 92.920219,409.84968 115.04372,364.23636 157.58729,276.52181 213.26166,218.62582 299.0303,172.9152 364.12925,138.22062 440.44702,119.61809 513.53362,120.13306 Z"
       id="path10"
       style="display:inline;fill:#000000;fill-opacity:1;stroke:none;stroke-width:5.18112;stroke-dasharray:none;stroke-opacity:1" />
    <path
       d="m 704.56878,410.05081 c -91.75786,-5.53676 -158.42135,95.34405 -119.3682,168.66166 27.14108,61.94233 116.12073,90.97122 179.87702,57.36017 65.20019,-30.6372 84.76535,-112.03682 47.16022,-167.60114 -21.17923,-34.80417 -62.64252,-61.2971 -107.66904,-58.42069 z"
       id="path9"
       style="stroke-width:3.04772" />
    <path
       d="m 513.9644,638.47273 c 9.18297,-0.14033 12.45565,3.34584 37.90859,30.73285 30.3263,32.63058 33.30518,38.94323 25.60955,54.29751 -6.42544,12.82 -28.38664,16.52655 -79.50068,13.41118 -16.70177,-1.01796 -33.53664,-3.41113 -37.41541,-5.31793 -6.10751,-3.0025 -13.65437,-18.58365 -13.71002,-28.30941 -0.008,-1.71367 11.14958,-16.75146 24.79791,-33.41734 23.84641,-29.11876 25.32893,-30.33506 37.93361,-31.17554 1.63505,-0.10899 3.06462,-0.20138 4.37645,-0.22132 z"
       id="path8"
       style="display:inline;stroke-width:3.04772" />
    <path
       d="M 323.43493,410.55029 C 77.121207,396.30969 271.20038,805.24448 416.69081,603.46883 467.61365,535.2478 437.8048,394.89329 323.43493,410.55029 Z"
       id="path6"
       style="stroke-width:3.04772" />
    <path
       style="fill:#ffffff;fill-opacity:0;stroke-width:2.13935;paint-order:markers fill stroke"
       d="m 112.39179,879.56912 c -1.99713,-3.21842 -2.8754,-25.47969 -4.12706,-104.60648 -0.8745,-55.28487 -1.96877,-101.05513 -2.43171,-101.71169 -0.46293,-0.65652 -14.182348,16.89138 -30.487591,38.99533 -16.305244,22.10396 -31.127312,40.18902 -32.937908,40.18902 -4.382819,0 -16.662106,-18.44606 -16.662106,-25.02995 0,-5.62739 9.596244,-19.85193 55.217911,-81.84979 L 109.50925,606.76291 71.426069,553.94754 C 34.698866,503.01269 22.048307,484.05176 22.048307,479.93909 c 0,-4.77078 12.586561,-23.45172 16.284149,-24.16888 3.170699,-0.61495 11.032437,8.2491 34.585894,38.99532 16.765321,21.88516 31.17916,39.79119 32.03072,39.79119 1.95426,0 3.96937,-75.59961 3.97619,-149.17255 0.004,-53.23308 0.21059,-56.60163 3.7447,-61.3351 6.19498,-8.29734 5.05824,-9.57249 84.52911,94.82104 28.3786,37.27837 41.13038,55.68169 41.13038,59.35923 0,3.64551 -13.43695,23.38665 -42.5168,62.46434 -23.38424,31.42389 -42.51681,58.127 -42.51681,59.34025 0,1.21324 18.29355,26.98893 40.65236,57.2793 22.35878,30.29032 41.49763,58.05118 42.53078,61.69076 2.59935,9.15694 -0.24985,14.10663 -36.86035,64.03446 -42.49821,57.95724 -76.89961,100.61915 -81.13648,100.61915 -1.95432,0 -4.69498,-1.83979 -6.09036,-4.08848 z M 172.18807,512.89266 197.84644,478.84913 172.09,444.80561 c -14.16604,-18.72395 -26.68548,-34.04353 -27.82097,-34.04353 -1.47028,0 -2.06454,19.59773 -2.06454,68.08705 0,50.33226 0.56395,68.08704 2.1626,68.08704 1.18944,0 13.70887,-15.31958 27.82098,-34.04351 z"
       id="path16" />
    <path
       style="display:inline;fill:none;stroke:none;stroke-width:6.57394;stroke-linecap:round;stroke-linejoin:round;stroke-dasharray:none;stroke-opacity:1"
       d="m 462.94417,943.40575 c -2.88759,-8.05726 -9.45103,-59.56845 -8.69561,-68.24529 0.85144,-9.77993 -8.28777,-13.92128 -32.24592,-14.61197 -12.45312,-0.35906 -16.9118,3.67399 -19.9757,18.06859 -1.82911,8.59343 -6.39465,37.89204 -7.18215,46.0904 -1.33334,13.88063 -6.57405,17.12913 -24.36215,15.10121 -16.78222,-1.91327 -32.16108,-4.64783 -34.09085,-6.06188 -0.55771,-0.40868 -2.38293,-1.02 -4.05604,-1.35849 -16.28205,-3.29413 -42.01583,-23.23964 -44.62844,-34.59013 -1.57552,-6.8449 -5.21959,-48.77818 -6.36643,-73.26083 -0.39581,-8.45012 -1.96284,-16.49374 -3.48224,-17.87486 -1.51943,-1.38109 -1.78045,-4.83769 -0.58007,-7.68142 1.2004,-2.84366 0.0543,-5.17036 -2.54684,-5.17036 -2.60117,0 -3.77359,-1.40586 -2.60539,-3.12416 1.94109,-2.85522 -26.20208,-28.3526 -29.3929,-26.62962 -0.76085,0.41083 -3.89696,-2.26722 -6.96909,-5.95122 -3.07214,-3.68396 -5.64374,-5.46993 -5.71469,-3.96883 -0.071,1.50114 -3.32311,0.24324 -7.22706,-2.79559 -3.90395,-3.03873 -8.71923,-5.36962 -10.70063,-5.17984 -1.98142,0.18984 -4.71926,-1.0505 -6.08407,-2.75624 -3.48807,-4.35927 -32.9018,-24.07338 -32.9018,-22.05188 0,3.73203 -26.79473,-23.02538 -32.12622,-32.08154 -3.16192,-5.37091 -7.37348,-9.76531 -9.35899,-9.76531 -1.98551,0 -2.48199,-1.65922 -1.10324,-3.68721 1.37873,-2.02797 0.46611,-3.68723 -2.02802,-3.68723 -2.49414,0 -3.40673,-1.65927 -2.02805,-3.68726 1.37873,-2.02797 0.46613,-3.68723 -2.02801,-3.68723 -2.49415,0 -3.40674,-1.65924 -2.02802,-3.68721 1.37871,-2.028 0.46611,-3.68723 -2.02802,-3.68723 -2.49412,0 -3.40676,-1.65924 -2.02799,-3.68726 1.37872,-2.02797 0.26977,-3.68721 -2.46469,-3.68721 -2.73431,0 -3.81882,-1.0478 -2.4101,-2.32843 1.40873,-1.28063 0.40869,-5.8436 -2.2223,-10.13985 -2.63099,-4.29635 -5.07645,-9.05596 -5.43434,-10.57692 -0.35791,-1.52098 -1.10704,-3.59506 -1.66474,-4.60906 -0.55773,-1.01397 -1.47032,-3.50287 -2.02802,-5.53083 -0.55773,-2.02799 -1.45272,-4.93168 -1.9889,-6.45267 -0.536183,-1.52098 -1.398927,-4.42469 -1.917235,-6.45266 -0.518293,-2.02796 -1.453296,-4.51687 -2.077792,-5.53083 -10.950025,-17.7796 -12.475346,-127.80347 -2.40256,-173.29997 3.263061,-14.7385 5.67496,-23.89615 6.555147,-24.88883 0.44953,-0.50699 1.27361,-2.58104 1.83134,-4.60903 0.5577,-2.02798 1.45832,-4.93166 2.00135,-6.45267 0.543,-1.52098 0.77114,-4.00985 0.50699,-5.53083 -0.26436,-1.52096 1.34489,-2.76543 3.57571,-2.76543 2.23084,0 3.66828,-1.24443 3.19434,-2.76541 -0.47396,-1.52101 1.28703,-6.28058 3.91333,-10.57689 2.62629,-4.2963 3.62248,-8.85927 2.21373,-10.13988 -1.40873,-1.28065 -0.32419,-2.32848 2.4101,-2.32848 2.73427,0 3.84336,-1.65923 2.46465,-3.68721 -1.37872,-2.02797 -0.46613,-3.68723 2.02802,-3.68723 2.49414,0 3.40674,-1.65924 2.02801,-3.68723 -1.37868,-2.02795 -0.46609,-3.6872 2.02805,-3.6872 2.49413,0 3.40675,-1.65929 2.02802,-3.68727 -1.37875,-2.02799 -0.46611,-3.68723 2.02801,-3.68723 2.49412,0 3.50311,-1.51753 2.24209,-3.37229 -1.26093,-1.8548 -0.91236,-3.92884 0.77467,-4.60905 3.71718,-1.49875 26.2636,-32.57822 23.63372,-32.57822 -1.02132,0 3.51583,-5.34756 10.08254,-11.88344 6.56672,-6.53587 11.93946,-12.88683 11.93946,-14.11319 0,-3.29125 57.64934,-55.12248 61.30997,-55.12248 1.71974,0 5.51178,-3.0955 8.4268,-6.87884 2.91504,-3.78335 7.12525,-7.16334 9.3561,-7.51104 2.23081,-0.34768 8.17662,-3.88924 13.21294,-7.87009 5.03636,-3.98086 10.96831,-7.23789 13.18218,-7.23789 2.21382,0 4.02517,-1.65926 4.02517,-3.68725 0,-2.02797 1.36894,-3.35767 3.04204,-2.95488 1.67312,0.40281 14.4391,-4.59397 28.36882,-11.10402 13.92969,-6.50995 25.79365,-11.53689 26.36427,-11.17094 0.57063,0.36593 5.60054,-1.6303 11.1776,-4.4361 5.57705,-2.80581 11.50901,-5.36766 13.18213,-5.69302 1.67311,-0.32534 3.95467,-1.00638 5.07005,-1.51337 1.11541,-0.50698 3.85327,-1.33664 6.08408,-1.84362 2.23081,-0.50699 4.51235,-1.25617 5.07004,-1.66484 1.32561,-0.97131 15.08346,-3.91333 25.35027,-5.4209 4.46162,-0.65515 8.11208,-1.54123 8.11208,-1.96902 0,-0.79166 7.55591,-2.07143 36.50439,-6.1828 33.38152,-4.74098 94.90691,-2.82737 133.84938,4.1631 6.69247,1.20135 15.81857,2.72839 20.28022,3.39336 4.46162,0.66499 8.11209,1.54782 8.11209,1.9618 0,0.68923 6.04386,2.22677 19.26619,4.90119 2.78853,0.56404 7.35157,2.32119 10.14012,3.90481 2.7885,1.58365 5.098,1.53702 5.13213,-0.10358 0.0342,-1.64067 1.56731,-0.82582 3.40698,1.81075 1.83972,2.63653 7.28739,5.0637 12.10604,5.39367 4.81863,0.32999 8.76114,1.90611 8.76114,3.50253 0,1.59644 1.36892,2.613 3.04202,2.25908 4.39041,-0.92865 26.8439,9.03677 30.35821,13.47376 1.63898,2.06924 3.00789,2.45321 3.04206,0.85321 0.0342,-1.59996 3.74337,0.20878 8.24264,4.01931 4.4993,3.81057 13.16909,9.26508 19.26622,12.12112 6.09711,2.85602 12.54524,7.26954 14.3292,9.80784 1.78399,2.53828 4.681,4.61503 6.43787,4.61503 7.3019,0 85.63555,69.91714 85.63555,76.43446 0,2.17532 21.66471,28.25667 25.67361,30.90756 1.87639,1.24072 2.9858,2.89995 2.46541,3.68721 -0.52042,0.78731 3.34309,8.89804 8.58553,18.02391 5.24242,9.12592 9.16277,17.83702 8.71179,19.35798 -0.45093,1.52098 1.30956,2.76546 3.91218,2.76546 2.60261,0 3.57945,1.04778 2.17074,2.32841 -1.40876,1.28062 -0.40868,5.84358 2.2223,10.13989 2.63098,4.29632 5.07647,9.05591 5.43433,10.57687 0.3579,1.52099 1.10703,3.59506 1.66476,4.60909 0.55771,1.01395 1.4703,3.50284 2.02804,5.53083 0.55768,2.02795 1.47028,4.51686 2.02799,5.53087 0.55772,1.01396 1.47033,3.50284 2.02801,5.53081 0.55771,2.02801 1.38183,4.10205 1.83135,4.60906 0.44953,0.507 1.48364,3.41066 2.2979,6.45265 0.81435,3.04195 2.63895,9.67898 4.05476,14.74893 7.8089,27.96351 9.14418,156.53779 1.76148,169.61272 -0.57253,1.01397 -1.465,3.50285 -1.9833,5.53084 -0.51831,2.02799 -1.38107,4.93168 -1.91727,6.45267 -0.53613,1.521 -1.43116,4.42466 -1.98885,6.45266 -0.55771,2.02796 -1.4703,4.51688 -2.02804,5.53081 -0.5577,1.01402 -1.33071,3.08809 -1.71781,4.60905 -4.25265,16.70988 -64.40648,104.16436 -71.6473,104.16436 -2.03482,0 -6.90875,2.90367 -10.83092,6.45265 -3.92224,3.54895 -15.32981,9.72537 -25.35029,13.72537 -10.02045,3.99997 -19.55998,8.97774 -21.19892,11.06166 -1.63898,2.084 -3.00789,2.50634 -3.04207,0.93861 -0.0341,-1.56774 -4.73023,-0.0697 -10.43586,3.32864 -9.69556,5.7752 -29.42441,34.55046 -23.68837,34.55046 1.43389,0 0.80718,2.07409 -1.39272,4.60907 -2.19986,2.53497 -4.15236,7.09792 -4.33888,10.13986 -0.44624,7.27979 -4.64728,49.53951 -6.78114,68.21385 -2.48998,21.79135 -4.09726,27.25971 -9.43956,32.11623 -2.6544,2.41307 -4.82619,6.23472 -4.82619,8.49255 0,2.25789 -6.38825,6.38384 -14.19612,9.16886 -7.8079,2.78498 -14.19616,6.13667 -14.19616,7.44814 0,1.31146 -2.28153,2.57192 -5.07007,2.801 -11.06642,0.90907 -25.80683,3.48119 -34.47637,6.01582 -9.52677,2.7853 -25.47541,-0.11408 -24.78755,-4.50618 0.21896,-1.39737 -0.0465,-3.78516 -0.58938,-5.30614 -1.1615,-3.25319 -2.69115,-15.65355 -5.25182,-42.57407 -1.02166,-10.74087 -2.92891,-20.50281 -4.23838,-21.6932 -1.92663,-1.75149 -29.18919,-2.57886 -47.01561,-1.42694 -2.0922,0.13524 -3.89226,3.14952 -4.00016,6.69849 -0.23272,7.65218 -3.52683,41.78552 -5.75916,59.67601 l -1.5802,12.66381 -49.61861,0.5036 c -32.158,0.32644 -50.11671,-0.88611 -51.03406,-3.44572 z M 572.10926,730.86016 c 15.88779,-11.361 13.98634,-24.52819 -7.22996,-50.06653 -46.9243,-56.48325 -58.50339,-57.85088 -95.98304,-11.33673 -25.55998,31.72125 -27.4744,37.50251 -17.95828,54.23134 7.06979,12.42835 12.24576,13.49112 69.45672,14.26154 35.91402,0.48362 42.35944,-0.40001 51.71456,-7.08962 z M 361.74203,654.15512 c 21.68992,-9.02832 52.81367,-40.0726 66.19438,-66.02538 9.82271,-19.05175 10.86778,-25.17078 10.84279,-63.48701 -0.0223,-36.72576 -1.32153,-45.01365 -9.6913,-61.90008 -12.20512,-24.62433 -38.88086,-46.43212 -63.76424,-52.1281 -39.45741,-9.03209 -109.20266,2.03281 -132.78765,21.0664 -16.58562,13.38491 -26.86978,41.25623 -26.91198,72.93459 -0.0681,51.20495 21.66934,99.1754 58.99266,130.18511 31.52202,26.1898 64.7815,32.81752 97.12534,19.35447 z m 389.67152,-10.32589 c 28.247,-8.73242 62.81284,-40.72784 73.03263,-67.60167 11.62277,-30.56303 10.12484,-71.07032 -3.56891,-96.51436 -15.53904,-28.87265 -36.38878,-49.08294 -62.76152,-60.83668 -31.23706,-13.92157 -78.08783,-14.70552 -107.14874,-1.79287 -27.51862,12.22733 -50.88443,34.6295 -65.42569,62.72739 -33.54449,64.81761 0.0165,140.12541 73.35694,164.61604 21.3903,7.14271 68.46067,6.83851 92.51529,-0.59785 z"
       id="path1" />
  </g>
</svg>
